<svg version="1.1" xmlns="http://www.w3.org/2000/svg" xmlns:xlink="http://www.w3.org/1999/xlink" width="1023px" height="190px" viewBox="0,0,256,47.53906"><g fill="#ffffff" fill-rule="nonzero" stroke="none" stroke-width="1" stroke-linecap="butt" stroke-linejoin="miter" stroke-miterlimit="10" stroke-dasharray="" stroke-dashoffset="0" font-family="none" font-weight="none" font-size="none" text-anchor="none" style="mix-blend-mode: normal"><g transform="translate(0,-0.03497) scale(0.25024,0.25024)"><g id="Branding-elements"><path d="M67.375,151.25c-9.5,0 -14.75,-7 -14.75,-18.5c0,-10.5 2,-20 5.5,-27.25c4.25,-7.5 10,-12.5 17.5,-12.5c9.87805,0 13.65761,6.58637 13.74832,14.69885l0.00168,0.30115c0,3.25 -0.75,9.5 -2.5,19.5l-0.18675,0.93263c-2.85077,13.73037 -9.28852,22.81737 -19.31325,22.81737zM44.125,190c17.75,0 32.5,-10 40,-28.75v2c0,15 12.5,26 31.5,26c9.5,0 19,-2.25 24.5,-5.25l5.25,-30.5c-2.5,1 -4.5,1.5 -6.75,1.5c-3.75,0 -5.25,-2 -5.25,-5.5c0,-1.25 0.25,-2.5 0.5,-4l15,-85.75h-41.25l-11.25,19.75c-3.25,-12.25 -15.25,-22.75 -34.5,-22.75c-18.25,0 -34.5,9.25 -45,25c-10.25,14.75 -16,34.75 -16,56.5c0,29.25 16.25,51.75 43.25,51.75zM232.125,56.75c-28,0 -47.75,11.5 -60.5,30.25c-8.5,12.75 -13,29.25 -13,47.25c0,35 25.5,55.75 59.75,55.75c28.75,0 50.25,-12 60,-40.25l-41.5,-13.75l-0.15881,0.67293c-2.07492,8.52004 -6.57196,16.82707 -15.34119,16.82707c-9.75,0 -13.75,-8 -13.75,-19.75c0,-8.25 2,-20 5.75,-28.25l0.37759,-0.71821c3.67602,-6.87595 8.13074,-11.78179 15.62241,-11.78179c9.25,0 11.75,9.25 11.25,19l43.5,-5.5c0,-28.5 -17.25,-49.75 -52,-49.75zM363.625,56.75c-27.75,0 -47.5,11.5 -60.25,30.25c-8.5,12.75 -13,29.25 -13,47.25c0,35 25.5,55.75 59.75,55.75c28,0 47.75,-11.75 60.25,-30.25c8.75,-12.75 13.25,-29.25 13.25,-47.25c0,-35.25 -25.5,-55.75 -60,-55.75zM352.875,153.5c-9.75,0 -13.5,-8 -13.5,-19.75c0,-8.25 2,-20 5.75,-28.25l0.37759,-0.71821c3.67602,-6.87595 8.13074,-11.78179 15.62241,-11.78179c9.5,0 13.5,8.25 13.5,20c0,8.25 -2,20 -5.75,28.25l-0.37759,0.69404c-3.67602,6.65013 -8.13074,11.55596 -15.62241,11.55596zM448.375,59.75l-14.25,80.5c-0.75,4.5 -1,8.5 -1,12c0,25 16.75,37.75 36.75,37.75c18.5,0 35,-11 41.75,-28.75v2c0,15 12.5,26 31.5,26c9.5,0 18.75,-2.25 24.5,-5.25l5.25,-30.5c-2.5,1 -4.5,1.5 -6.75,1.5c-3.75,0 -5.25,-2 -5.25,-5.5c0,-1.25 0.25,-2.5 0.5,-4l15,-85.75h-50.5l-12,68.5c-2.75,15.25 -9.5,22 -18,22c-7.25,0 -10.25,-4 -10.25,-11.5c0,-2 0.25,-4.25 0.75,-7l12.5,-72zM579.125,150.25c2.5,26.75 30,39.75 60,39.75c36,0 62.25,-18.75 62.25,-48.5c0,-38.75 -60.25,-30.5 -60.25,-45c0,-5.25 4.25,-8.5 11,-8.5c9,0 14,5.25 14,12.75l42.25,-2.25c0,-25 -19.5,-41.75 -56.75,-41.75c-33.25,0 -58.75,18.75 -58.75,47.5c0,40.5 58.5,30.5 58.5,45c0,6.25 -4.75,9 -11.25,9c-9.5,0 -15.75,-5.5 -16.5,-13.75zM803.375,143.25c-7.5,5 -12.5,6.75 -18.5,6.75c-6.5,0 -9.75,-3 -9.75,-9c0,-1.25 0.25,-2.75 0.5,-4.25l7,-40.25h29.5l6.5,-36.75h-29.25l5.75,-32.5l-51.25,5.5l-4.75,27h-15.75l-6.25,36.75h15.25l-8.5,47.25c-0.5,3.75 -0.75,7.5 -0.75,10.75c0,24 16.75,35.5 41.75,35.5c14.5,0 28.5,-3.75 38.75,-12.25zM868.125,0.25c-14.25,0 -28.5,9 -28.5,25.5c0,16.5 13.5,24.75 27.75,24.75c14.25,0 28.5,-9 28.5,-25.5c0,-16.5 -13.5,-24.75 -27.75,-24.75zM836.375,59.75l-15.75,89.5c-0.5,3 -0.75,6 -0.75,9c0,18.75 11.25,31 33,31c9.5,0 19.5,-2.25 25,-5.25l5.5,-30.5c-2.5,1 -4.75,1.5 -7,1.5c-3.5,0 -5,-2 -5,-5.5c0,-1.25 0.25,-2.5 0.5,-4l15,-85.75zM970.125,56.75c34.75,0 52,21.25 52,49.75l-43.5,5.5l0.02912,-0.65645c0.35511,-9.50461 -2.23699,-18.34355 -11.27912,-18.34355c-7.75,0 -12.25,5.25 -16,12.5c-3.75,8.25 -5.75,20 -5.75,28.25c0,11.75 4,19.75 13.75,19.75c9,0 13.5,-8.75 15.5,-17.5l41.5,13.75c-9.75,28.25 -31.25,40.25 -60,40.25c-34.25,0 -59.75,-20.75 -59.75,-55.75c0,-18 4.5,-34.5 13,-47.25c12.75,-18.75 32.5,-30.25 60.5,-30.25z" id="acoustic"></path></g></g></g></svg>